<svg width="1080" height="1080" viewBox="0 0 1080 1080" fill="none" xmlns="http://www.w3.org/2000/svg">
<path d="M213.958 723.042C192.805 723.042 174.807 720.073 159.962 714.135C145.489 707.826 132.5 697.992 120.996 684.632L114.873 716.919H67V582.207H117.656C119.883 619.318 128.975 645.666 144.932 661.253C160.89 676.468 182.043 684.076 208.392 684.076C229.545 684.076 246.43 679.622 259.048 670.716C271.665 661.809 277.974 648.078 277.974 629.523C277.974 614.308 273.707 601.876 265.171 592.227C257.007 582.207 245.317 573.486 230.101 566.064C215.257 558.27 197.815 550.292 177.775 542.127C154.767 532.479 135.098 522.644 118.769 512.624C102.441 502.604 90.0086 490.543 81.4732 476.441C72.9377 462.339 68.67 444.526 68.67 423.002C68.67 387.005 79.6176 359.172 101.513 339.503C123.779 319.834 153.468 310 190.579 310C227.318 310 257.192 320.391 280.201 341.173L284.654 316.123H332.527V450.835H284.097C284.097 415.951 277.603 390.159 264.614 373.459C251.626 356.759 231.586 348.41 204.495 348.41C162.56 348.41 141.592 368.264 141.592 407.972C141.592 420.961 144.19 431.352 149.386 439.145C154.581 446.938 163.117 454.175 174.992 460.855C187.239 467.535 203.753 475.514 224.535 484.791C255.708 498.893 280.572 512.068 299.127 524.314C317.683 536.561 330.857 549.549 338.65 563.28C346.815 576.64 350.897 592.412 350.897 610.597C350.897 635.461 344.773 656.243 332.527 672.942C320.28 689.642 303.766 702.26 282.984 710.795C262.573 718.96 239.565 723.042 213.958 723.042Z" fill="#E4740D"/>
<path d="M462.624 658.748H621.272L634.632 587.495H681.948V719.98H400.835V683.241C400.835 663.943 405.659 646.316 415.308 630.358C425.328 614.029 437.946 598.814 453.161 584.712C468.748 570.239 485.076 556.322 502.147 542.962C519.589 529.231 535.918 515.686 551.133 502.326C566.72 488.595 579.337 474.308 588.986 459.463C599.006 444.619 604.016 428.661 604.016 411.59C604.016 392.664 597.522 378.005 584.533 367.614C571.915 356.852 554.102 351.471 531.093 351.471C510.683 351.471 494.725 355.924 483.221 364.831C472.087 373.738 464.851 387.283 461.511 405.467C473.386 405.467 482.478 408.622 488.787 414.93C495.096 420.868 498.251 428.847 498.251 438.867C498.251 449.629 494.539 457.979 487.117 463.917C479.695 469.854 469.861 472.823 457.614 472.823C444.254 472.823 432.565 468.555 422.545 460.02C412.896 451.484 408.072 437.011 408.072 416.6C408.072 396.561 413.267 378.748 423.658 363.161C434.049 347.575 449.079 335.328 468.748 326.421C488.416 317.515 511.796 313.062 538.887 313.062C565.977 313.062 589.728 317.515 610.139 326.421C630.921 335.328 647.25 347.946 659.125 364.274C671.001 380.603 676.938 399.901 676.938 422.167C676.938 443.691 671.743 463.36 661.352 481.173C650.961 498.615 637.601 514.573 621.272 529.046C605.315 543.148 588.058 556.137 569.503 568.012C551.319 579.887 534.062 591.021 517.734 601.412C501.776 611.431 488.602 621.266 478.211 630.915C467.82 640.192 462.624 649.47 462.624 658.748Z" fill="#E4740D"/>
<path d="M793.676 658.748H952.324L965.684 587.495H1013V719.98H731.887V683.241C731.887 663.943 736.711 646.316 746.36 630.358C756.38 614.029 768.997 598.814 784.213 584.712C799.799 570.239 816.128 556.322 833.199 542.962C850.641 529.231 866.97 515.686 882.185 502.326C897.771 488.595 910.389 474.308 920.038 459.463C930.058 444.619 935.068 428.661 935.068 411.59C935.068 392.664 928.573 378.005 915.585 367.614C902.967 356.852 885.154 351.471 862.145 351.471C841.734 351.471 825.777 355.924 814.272 364.831C803.139 373.738 795.903 387.283 792.563 405.467C804.438 405.467 813.53 408.622 819.839 414.93C826.148 420.868 829.302 428.847 829.302 438.867C829.302 449.629 825.591 457.979 818.169 463.917C810.747 469.854 800.913 472.823 788.666 472.823C775.306 472.823 763.616 468.555 753.596 460.02C743.948 451.484 739.123 437.011 739.123 416.6C739.123 396.561 744.319 378.748 754.71 363.161C765.101 347.575 780.131 335.328 799.799 326.421C819.468 317.515 842.848 313.062 869.938 313.062C897.029 313.062 920.78 317.515 941.191 326.421C961.973 335.328 978.302 347.946 990.177 364.274C1002.05 380.603 1007.99 399.901 1007.99 422.167C1007.99 443.691 1002.79 463.36 992.404 481.173C982.013 498.615 968.653 514.573 952.324 529.046C936.367 543.148 919.11 556.137 900.555 568.012C882.37 579.887 865.114 591.021 848.785 601.412C832.828 611.431 819.653 621.266 809.262 630.915C798.871 640.192 793.676 649.47 793.676 658.748Z" fill="#E4740D"/>
</svg>
